<?xml version="1.0" encoding="UTF-8" standalone="no"?>
<!DOCTYPE svg PUBLIC "-//W3C//DTD SVG 1.1//EN" "http://www.w3.org/Graphics/SVG/1.1/DTD/svg11.dtd">
<svg width="100%" height="100%" viewBox="0 0 19686 19686" version="1.1" xmlns="http://www.w3.org/2000/svg" xmlns:xlink="http://www.w3.org/1999/xlink" xml:space="preserve" xmlns:serif="http://www.serif.com/" style="fill-rule:evenodd;clip-rule:evenodd;stroke-linejoin:round;stroke-miterlimit:2;">
    <path d="M4094.525,9606.091L9641.239,3893.183L9641.239,8840.357L8861.762,9634.715L4094.525,9606.091ZM6285.935,8656.671L8251.541,8656.671L8651.469,8273.761L8651.469,6201.791L6285.935,8656.671Z" style="fill:rgb(58,52,34);"/>
    <path d="M4094.525,10072.037L9633.214,10072.037L9633.214,15836.056L8633.409,14837.395L8633.409,12678.801L7704.145,12678.801L7704.145,13932.294L4094.525,10072.037ZM6323.875,11021.371L6941.503,11699.157L8633.963,11699.157L8633.963,11021.371L6323.875,11021.371Z" style="fill:rgb(58,52,34);"/>
    <path d="M15562.632,10072.037L13512.23,12325.915L12815.394,12325.915L13943.366,11022.481L11055.759,11022.481L11055.759,11443.59L13040.989,11443.59L12260.173,12325.915L11055.759,12325.915L11055.759,13597.669L11894.647,12753.684L13134.513,12753.684L10057.467,15836.056L10057.467,10072.037" style="fill:rgb(58,52,34);"/>
    <path d="M10057.467,3893.183L13390.5,7269.682L12992.328,7726.836L13641.828,7598.498L15562.632,9634.715L14160.348,9634.715L12992.328,8299.008L11320.126,8299.008L11320.126,9634.715L10057.467,9634.715L10057.467,3893.183ZM11320.126,6389.498L11320.126,7333.851L12186.673,7333.851L11320.126,6389.498Z" style="fill:rgb(58,52,34);"/>
</svg>
